<svg width="1003" height="626" viewBox="0 0 1003 626" fill="none" xmlns="http://www.w3.org/2000/svg">
<g clip-path="url(#clip0_403_419)">
<rect y="626" width="626" height="1003" rx="30" transform="rotate(-90 0 626)" fill="black"/>
<rect x="33" y="97" width="60" height="926" rx="20" transform="rotate(-90 33 97)" fill="#828282"/>
<g clip-path="url(#clip1_403_419)">
<rect x="38" y="88" width="60" height="926" rx="20" transform="rotate(-90 38 88)" fill="#E0E0E0"/>
<circle cx="850.5" cy="55.5" r="12.5" fill="#FF2222"/>
<circle cx="880.5" cy="55.5" r="12.5" fill="#F1C911"/>
<circle cx="910.5" cy="55.5" r="12.5" fill="#00875F"/>
<path d="M238 28H764L760.221 28.468C757.482 28.8071 755.363 31.0292 755.153 33.7803V33.7803V33.7803C755.153 47.8073 743.782 59.1785 729.755 59.1785H272.245C258.218 59.1785 246.847 47.8073 246.847 33.7803V33.7803V33.7803C246.637 31.0292 244.518 28.8071 241.779 28.468L238 28Z" fill="#CACACD"/>
<path d="M102.789 51.7812V66H99.8594L94.1465 56.4688V66H91.2168V51.7812H94.1465L99.8691 61.3223V51.7812H102.789ZM110.865 63.6172V58.9102C110.865 58.5716 110.81 58.2819 110.699 58.041C110.589 57.7936 110.416 57.6016 110.182 57.4648C109.954 57.3281 109.658 57.2598 109.293 57.2598C108.98 57.2598 108.71 57.3151 108.482 57.4258C108.255 57.5299 108.079 57.6829 107.955 57.8848C107.831 58.0801 107.77 58.3112 107.77 58.5781H104.957C104.957 58.1289 105.061 57.7025 105.27 57.2988C105.478 56.8952 105.781 56.5404 106.178 56.2344C106.575 55.9219 107.047 55.6777 107.594 55.502C108.147 55.3262 108.766 55.2383 109.449 55.2383C110.27 55.2383 110.999 55.375 111.637 55.6484C112.275 55.9219 112.776 56.332 113.141 56.8789C113.512 57.4258 113.697 58.1094 113.697 58.9297V63.4512C113.697 64.0306 113.733 64.5059 113.805 64.877C113.876 65.2415 113.98 65.5605 114.117 65.834V66H111.275C111.139 65.7135 111.035 65.3555 110.963 64.9258C110.898 64.4896 110.865 64.0534 110.865 63.6172ZM111.236 59.5645L111.256 61.1562H109.684C109.312 61.1562 108.99 61.1986 108.717 61.2832C108.443 61.3678 108.219 61.4883 108.043 61.6445C107.867 61.7943 107.737 61.9701 107.652 62.1719C107.574 62.3737 107.535 62.5951 107.535 62.8359C107.535 63.0768 107.59 63.2949 107.701 63.4902C107.812 63.679 107.971 63.8288 108.18 63.9395C108.388 64.0436 108.632 64.0957 108.912 64.0957C109.335 64.0957 109.703 64.0111 110.016 63.8418C110.328 63.6725 110.569 63.4642 110.738 63.2168C110.914 62.9694 111.005 62.735 111.012 62.5137L111.754 63.7051C111.65 63.972 111.507 64.2487 111.324 64.5352C111.148 64.8216 110.924 65.0918 110.65 65.3457C110.377 65.5931 110.048 65.7982 109.664 65.9609C109.28 66.1172 108.824 66.1953 108.297 66.1953C107.626 66.1953 107.018 66.0618 106.471 65.7949C105.93 65.5215 105.501 65.1471 105.182 64.6719C104.869 64.1901 104.713 63.6432 104.713 63.0312C104.713 62.4779 104.817 61.9863 105.025 61.5566C105.234 61.127 105.54 60.7656 105.943 60.4727C106.354 60.1732 106.865 59.9486 107.477 59.7988C108.089 59.6426 108.798 59.5645 109.605 59.5645H111.236ZM122.105 63.6953V51H124.938V66H122.389L122.105 63.6953ZM115.426 60.8438V60.6387C115.426 59.8314 115.517 59.099 115.699 58.4414C115.882 57.7773 116.148 57.2077 116.5 56.7324C116.852 56.2572 117.285 55.8893 117.799 55.6289C118.313 55.3685 118.899 55.2383 119.557 55.2383C120.175 55.2383 120.715 55.3685 121.178 55.6289C121.646 55.8893 122.044 56.2604 122.369 56.7422C122.701 57.2174 122.968 57.7806 123.17 58.4316C123.372 59.0762 123.518 59.7826 123.609 60.5508V61C123.518 61.7357 123.372 62.4193 123.17 63.0508C122.968 63.6823 122.701 64.2357 122.369 64.7109C122.044 65.1797 121.646 65.5443 121.178 65.8047C120.709 66.0651 120.162 66.1953 119.537 66.1953C118.88 66.1953 118.294 66.0618 117.779 65.7949C117.271 65.528 116.842 65.1536 116.49 64.6719C116.145 64.1901 115.882 63.6237 115.699 62.9727C115.517 62.3216 115.426 61.612 115.426 60.8438ZM118.238 60.6387V60.8438C118.238 61.2799 118.271 61.6868 118.336 62.0645C118.408 62.4421 118.521 62.7773 118.678 63.0703C118.84 63.3568 119.049 63.5814 119.303 63.7441C119.563 63.9004 119.879 63.9785 120.25 63.9785C120.732 63.9785 121.129 63.8711 121.441 63.6562C121.754 63.4349 121.992 63.1322 122.154 62.748C122.324 62.3639 122.421 61.9212 122.447 61.4199V60.1406C122.428 59.7305 122.369 59.3626 122.271 59.0371C122.18 58.7051 122.044 58.4219 121.861 58.1875C121.686 57.9531 121.464 57.7708 121.197 57.6406C120.937 57.5104 120.628 57.4453 120.27 57.4453C119.905 57.4453 119.592 57.5299 119.332 57.6992C119.072 57.862 118.86 58.0866 118.697 58.373C118.541 58.6595 118.424 58.998 118.346 59.3887C118.274 59.7728 118.238 60.1895 118.238 60.6387ZM130.104 55.4336V66H127.281V55.4336H130.104ZM127.105 52.6797C127.105 52.2695 127.249 51.931 127.535 51.6641C127.822 51.3971 128.206 51.2637 128.688 51.2637C129.163 51.2637 129.544 51.3971 129.83 51.6641C130.123 51.931 130.27 52.2695 130.27 52.6797C130.27 53.0898 130.123 53.4284 129.83 53.6953C129.544 53.9622 129.163 54.0957 128.688 54.0957C128.206 54.0957 127.822 53.9622 127.535 53.6953C127.249 53.4284 127.105 53.0898 127.105 52.6797ZM136.969 66H133.873L133.893 63.7148H136.969C137.737 63.7148 138.385 63.5423 138.912 63.1973C139.439 62.8457 139.837 62.3346 140.104 61.6641C140.377 60.9935 140.514 60.1829 140.514 59.2324V58.5391C140.514 57.8099 140.436 57.1686 140.279 56.6152C140.13 56.0618 139.905 55.5964 139.605 55.2188C139.306 54.8411 138.938 54.5579 138.502 54.3691C138.066 54.1738 137.564 54.0762 136.998 54.0762H133.814V51.7812H136.998C137.949 51.7812 138.818 51.944 139.605 52.2695C140.4 52.5885 141.087 53.0475 141.666 53.6465C142.245 54.2454 142.691 54.9616 143.004 55.7949C143.323 56.6217 143.482 57.543 143.482 58.5586V59.2324C143.482 60.2415 143.323 61.1628 143.004 61.9961C142.691 62.8294 142.245 63.5456 141.666 64.1445C141.093 64.737 140.406 65.196 139.605 65.5215C138.811 65.8405 137.932 66 136.969 66ZM135.533 51.7812V66H132.604V51.7812H135.533ZM151.686 63.4707V55.4336H154.498V66H151.852L151.686 63.4707ZM151.998 61.3027L152.828 61.2832C152.828 61.9863 152.747 62.6406 152.584 63.2461C152.421 63.8451 152.177 64.3659 151.852 64.8086C151.526 65.2448 151.116 65.5866 150.621 65.834C150.126 66.0749 149.544 66.1953 148.873 66.1953C148.359 66.1953 147.883 66.1237 147.447 65.9805C147.018 65.8307 146.646 65.5996 146.334 65.2871C146.028 64.9681 145.787 64.5612 145.611 64.0664C145.442 63.5651 145.357 62.9629 145.357 62.2598V55.4336H148.17V62.2793C148.17 62.5918 148.206 62.8555 148.277 63.0703C148.355 63.2852 148.463 63.4609 148.6 63.5977C148.736 63.7344 148.896 63.832 149.078 63.8906C149.267 63.9492 149.475 63.9785 149.703 63.9785C150.283 63.9785 150.738 63.8613 151.07 63.627C151.409 63.3926 151.646 63.0736 151.783 62.6699C151.926 62.2598 151.998 61.804 151.998 61.3027ZM159.4 57.6895V66H156.588V55.4336H159.225L159.4 57.6895ZM158.99 60.3457H158.229C158.229 59.5645 158.329 58.8613 158.531 58.2363C158.733 57.6048 159.016 57.0677 159.381 56.625C159.745 56.1758 160.178 55.834 160.68 55.5996C161.188 55.3587 161.754 55.2383 162.379 55.2383C162.874 55.2383 163.326 55.3099 163.736 55.4531C164.146 55.5964 164.498 55.8242 164.791 56.1367C165.09 56.4492 165.318 56.8626 165.475 57.377C165.637 57.8913 165.719 58.5195 165.719 59.2617V66H162.887V59.252C162.887 58.7832 162.822 58.4186 162.691 58.1582C162.561 57.8978 162.369 57.7155 162.115 57.6113C161.868 57.5007 161.562 57.4453 161.197 57.4453C160.82 57.4453 160.491 57.5202 160.211 57.6699C159.938 57.8197 159.71 58.028 159.527 58.2949C159.352 58.5553 159.218 58.8613 159.127 59.2129C159.036 59.5645 158.99 59.9421 158.99 60.3457ZM167.408 60.8242V60.6191C167.408 59.8444 167.519 59.1315 167.74 58.4805C167.962 57.8229 168.284 57.2533 168.707 56.7715C169.13 56.2897 169.651 55.9154 170.27 55.6484C170.888 55.375 171.598 55.2383 172.398 55.2383C173.199 55.2383 173.912 55.375 174.537 55.6484C175.162 55.9154 175.686 56.2897 176.109 56.7715C176.539 57.2533 176.865 57.8229 177.086 58.4805C177.307 59.1315 177.418 59.8444 177.418 60.6191V60.8242C177.418 61.5924 177.307 62.3053 177.086 62.9629C176.865 63.6139 176.539 64.1836 176.109 64.6719C175.686 65.1536 175.165 65.528 174.547 65.7949C173.928 66.0618 173.219 66.1953 172.418 66.1953C171.617 66.1953 170.904 66.0618 170.279 65.7949C169.661 65.528 169.137 65.1536 168.707 64.6719C168.284 64.1836 167.962 63.6139 167.74 62.9629C167.519 62.3053 167.408 61.5924 167.408 60.8242ZM170.221 60.6191V60.8242C170.221 61.2669 170.26 61.6803 170.338 62.0645C170.416 62.4486 170.54 62.7871 170.709 63.0801C170.885 63.3665 171.113 63.5911 171.393 63.7539C171.673 63.9167 172.014 63.998 172.418 63.998C172.809 63.998 173.144 63.9167 173.424 63.7539C173.704 63.5911 173.928 63.3665 174.098 63.0801C174.267 62.7871 174.391 62.4486 174.469 62.0645C174.553 61.6803 174.596 61.2669 174.596 60.8242V60.6191C174.596 60.1895 174.553 59.7858 174.469 59.4082C174.391 59.0241 174.264 58.6855 174.088 58.3926C173.919 58.0931 173.694 57.8587 173.414 57.6895C173.134 57.5202 172.796 57.4355 172.398 57.4355C172.001 57.4355 171.663 57.5202 171.383 57.6895C171.109 57.8587 170.885 58.0931 170.709 58.3926C170.54 58.6855 170.416 59.0241 170.338 59.4082C170.26 59.7858 170.221 60.1895 170.221 60.6191Z" fill="#AAAAAA"/>
</g>
<rect x="38" y="602" width="503" height="926" rx="20" transform="rotate(-90 38 602)" fill="#E0E0E0"/>
</g>
<defs>
<clipPath id="clip0_403_419">
<rect y="626" width="626" height="1003" rx="30" transform="rotate(-90 0 626)" fill="white"/>
</clipPath>
<clipPath id="clip1_403_419">
<rect x="38" y="88" width="60" height="926" rx="20" transform="rotate(-90 38 88)" fill="white"/>
</clipPath>
</defs>
</svg>
